<svg xmlns="http://www.w3.org/2000/svg" xml:space="preserve" width="2048" height="2048" style="shape-rendering:geometricPrecision;text-rendering:geometricPrecision;image-rendering:optimizeQuality;fill-rule:evenodd;clip-rule:evenodd"><defs><clipPath id="id0"><path d="M1024-.001c565.541 0 1024 458.46 1024 1024s-458.461 1024-1024 1024c-565.541 0-1024-458.461-1024-1024 0-565.541 458.461-1024 1024-1024z"/></clipPath><style>.fil1{fill:#1565c0}.fil5{fill:#c57040}.fil12,.fil8{fill:#e0e0e0;fill-rule:nonzero}.fil12{fill:#e6e6e6}</style></defs><g id="Layer_x0020_1"><path d="M1024-.001c565.541 0 1024 458.46 1024 1024s-458.461 1024-1024 1024c-565.541 0-1024-458.461-1024-1024 0-565.541 458.461-1024 1024-1024z" style="fill:#1e88e5"/><g style="clip-path:url(#id0)"><g id="_517132288"><path id="_4899630481" class="fil1" d="M1366.51 473.553 2502.4 1609.44l.85 1.04.79 1.1.73 1.14.66 1.19.6 1.22.52 1.27.45 1.3.38 1.34.29 1.36.22 1.4.13 1.42.04 1.45L1372.18 488.783l-.04-1.444-.14-1.421-.21-1.396-.29-1.367-.38-1.336-.45-1.302-.52-1.267-.6-1.227-.66-1.186-.73-1.142-.79-1.096z"/><path id="_489963552" class="fil1" d="M1372.18 488.783 2508.06 1624.67v88.51L1372.18 577.3z"/><path id="_489964368" class="fil1" d="M1405.92 577.293 2541.8 1713.17l3.98 6.77L1409.9 584.057z"/><path id="_489963768" class="fil1" d="M1410.62 584.829 2546.5 1720.71l.68.81.64.84.61.86.56.9.52.93.48.95.44.98.38 1 .34 1.02.3 1.05.24 1.06.19 1.09.13 1.1.09 1.12.03 1.13L1416.25 599.665l-.03-1.131-.09-1.118-.13-1.101-.19-1.083-.25-1.065-.29-1.045-.34-1.025-.39-1.002-.43-.977-.48-.953-.52-.925-.56-.899-.61-.868-.64-.837z"/><path id="_489963840" class="fil1" d="M1416.25 599.665 2552.13 1735.55v961.96L1416.25 1561.63z"/><path id="_489964392" class="fil1" d="m1416.25 1561.63 1135.88 1135.88-.12 2.29-.34 2.22-.55 2.14-.75 2.06-.94 1.95-1.12 1.85-1.29 1.72-1.45 1.59-1.58 1.44-1.73 1.29-1.84 1.12-1.96.94-2.05.76-2.15.55-2.22.34-2.28.11L1393.87 1584l2.29-.12 2.22-.33 2.15-.56 2.05-.75 1.96-.94 1.84-1.12 1.72-1.29 1.59-1.44 1.45-1.59 1.28-1.72 1.13-1.85.94-1.95.75-2.06.55-2.14.34-2.22z"/><path id="_489964440" class="fil1" d="m1393.87 1584 1135.89 1135.88H1888.5L752.617 1584z"/><path id="_489964176" class="fil1" d="M752.617 1584 1888.5 2719.88h-12.41L740.206 1584z"/><path id="_489963960" class="fil1" d="M737.356 1583.95 1873.24 2719.83l-.78-.01-.79-.05-.78-.07-.79-.1-.78-.12-.79-.16-.78-.18-.79-.22L731.079 1583.04l.786.21.785.19.787.16.786.12.786.1.784.07.783.04z"/><path id="_489964080" class="fil1" d="M740.206 1584 1876.09 2719.88h-2.85L737.356 1584z"/><path id="_489965256" class="fil1" d="M731.079 1583.04 1866.96 2718.92l-2.77-.84-2.73-.86-2.69-.89-2.66-.92-2.62-.95-2.58-.97-2.54-1-2.51-1.04-2.47-1.05-2.44-1.09-2.39-1.12-2.36-1.14-2.32-1.17-2.28-1.2-2.25-1.23-2.21-1.26-2.17-1.29-2.13-1.31-2.09-1.35-2.06-1.37-2.01-1.4-1.98-1.43-1.94-1.47-1.91-1.49-1.86-1.52L673.11 1553.68l1.863 1.52 1.902 1.49 1.94 1.46 1.979 1.43 2.017 1.41 2.056 1.37 2.093 1.35 2.132 1.31 2.17 1.29 2.207 1.25 2.246 1.23 2.283 1.21 2.321 1.17 2.357 1.14 2.397 1.12 2.433 1.08 2.471 1.06 2.507 1.03 2.545 1.01 2.583.97 2.62.95 2.656.92 2.693.89 2.731.86z"/><path id="_517132384" class="fil1" d="M806.781 465.651c179.731-3.586 362.302-.214 542.347-.214 5.034 0 9.68 1.663 13.418 4.47 5.838 4.236 9.634 11.114 9.634 18.876V577.3l33.738-.008 3.98 6.765a22.295 22.295 0 0 1 6.347 15.608v961.964c0 12.355-10.017 22.371-22.37 22.371h-656.52v-.052a22.339 22.339 0 0 1-6.276-.91c-29.712-8.776-53.16-22.228-69.93-40.832-17.052-18.916-26.793-42.482-28.782-71.13a22.6 22.6 0 0 1-.193-2.942V555.106c-2.2-17.604 4.382-33.573 16.598-46.244 21.994-22.81 70.948-41.47 158.008-43.21z"/></g></g><path d="M1024-.001c565.541 0 1024 458.46 1024 1024s-458.461 1024-1024 1024c-565.541 0-1024-458.461-1024-1024 0-565.541 458.461-1024 1024-1024z" style="fill:none"/><path d="m740.206 577.426 665.712-.133 3.98 6.764a22.295 22.295 0 0 1 6.348 15.608v961.964c0 12.356-10.017 22.371-22.372 22.371H740.205V577.43z" style="fill:#ffaf68"/><path d="m734.329 577.432 5.875-.001v1006.34c-2.97.382-6.066.17-9.124-.728-29.712-8.777-53.16-22.228-69.93-40.833-17.051-18.915-26.793-42.482-28.782-71.13a22.6 22.6 0 0 1-.193-2.942V555.11c-2.2-17.604 4.382-33.572 16.598-46.243 21.994-22.81 70.948-41.47 158.008-43.211 179.731-3.586 362.302-.214 542.347-.214 10.266 0 18.918 6.918 21.55 16.344 4.91 11.263-4.12 24.07-18.597 27.276-9.994.62-18.455 1.124-28.33 1.127l-524.176.217c-12.57.695-55.729-.467-87.032 7.52-68.616 17.507-29.73 59.697 21.786 59.51z" style="fill:#e08045"/><path class="fil5" d="M737.356 564.471v1019.53h15.261V565.081a9.391 9.391 0 0 1-1.752.263 57.321 57.321 0 0 1-13.51-.869z"/><path d="m1339.95 510.45-21.508.01-525.749.21c-75.732.03-112.109 12.8-116.665 31.392-3.537 14.437 10.29 35.788 51.418 35.639a8.747 8.747 0 0 1 1.478-.138h613.568l-2.542-67.113z" style="fill:#fff8e1"/><path d="M1372.18 488.783c0-12.87-10.435-23.305-23.305-23.305-12.871 0-23.305 10.435-23.305 23.305V577.558h46.61v-88.775z" style="fill:#e08045;fill-rule:nonzero"/><path class="fil5" d="M937.43 809.699h264.005v28.12H937.43zM838.817 887.026h461.23v28.12h-461.23z"/><path class="fil8" d="M1013.94 1152.55c1.454 1.775 1.058 4.38-.718 5.833a4.156 4.156 0 0 1-5.849-.583l-22.546-27.553c-14.132-17.269-16.447-4.797-33.74-25.792l-43.87-53.155v-.001a13.84 13.84 0 0 1-3.057-10.17 13.843 13.843 0 0 1 15.182-12.424c3.537.352 6.958 1.917 9.378 4.875l44.011 53.782c18.356 22.43 3.672 19.467 19.376 38.658l21.833 26.53z"/><path d="M1074.87 1234.34c8.874-7.26 13.074-18.406 12.69-30.558-.371-11.766-5.068-24.504-14.002-35.42v-.002c-8.935-10.918-20.491-18.041-31.951-20.733-11.835-2.78-23.592-.87-32.465 6.392-8.873 7.261-13.073 18.408-12.69 30.558.37 11.767 5.068 24.504 14.003 35.422 8.934 10.918 20.49 18.043 31.951 20.734 11.835 2.78 23.592.868 32.464-6.393z" style="fill:#e8eaf6;fill-rule:nonzero"/><path class="fil8" d="M1073.43 1232.57c7.043-5.764 10.377-14.611 10.072-24.255-.294-9.34-4.022-19.452-11.114-28.117-7.092-8.667-16.265-14.323-25.363-16.46-9.393-2.205-18.725-.688-25.768 5.076-7.044 5.764-10.377 14.61-10.073 24.255.295 9.34 4.022 19.45 11.115 28.118 7.091 8.665 16.265 14.32 25.362 16.457 9.394 2.207 18.726.69 25.769-5.074z"/><path d="m986.286 1125.67-3.519 2.846c-10.715-10.22-14.417-2.395-30.196-21.55l-45.3-54.89c-4.993-6.076-4.1-15.168 2.017-20.173l.161-.128 76.837 93.895z" style="fill:#ca2b03"/><path d="m990.079 1122.6-3.717 3.008-.076.062-76.836-93.896.012-.01c6.09-4.826 15.2-3.868 20.013 2.016l45.447 55.535c16.508 20.174 7.136 20.456 15.157 33.285z" style="fill:#dd2c00"/><path class="fil12" d="M1067.31 1227.18a.945.945 0 0 1-1.198-1.463c2.754-2.253 4.796-5.098 6.134-8.321 1.4-3.375 2.035-7.16 1.91-11.116-.12-3.851-.966-7.872-2.53-11.822-1.504-3.808-3.678-7.551-6.514-11.017a.946.946 0 0 1 1.465-1.197c2.956 3.613 5.227 7.527 6.805 11.52 1.642 4.152 2.53 8.388 2.659 12.46.133 4.228-.547 8.28-2.048 11.896-1.457 3.507-3.682 6.605-6.683 9.06z"/><path d="M1264.82 1213.65c0 35.473-10.336 68.558-28.163 96.412-17.468 27.29-42.142 49.53-71.34 64.042v10.69a7.96 7.96 0 0 1-7.96 7.96h-143.284a7.96 7.96 0 0 1-7.96-7.96v-10.69c-29.199-14.512-53.874-36.752-71.34-64.042-17.828-27.854-28.164-60.939-28.164-96.412a7.961 7.961 0 0 1 7.96-7.96h342.29a7.961 7.961 0 0 1 7.961 7.96z" style="fill:#8bc34a;fill-rule:nonzero"/><path d="M1085.71 1392.76v-187.065H914.566a7.961 7.961 0 0 0-7.96 7.96c0 35.474 10.335 68.559 28.163 96.413 17.466 27.29 42.142 49.53 71.34 64.042v10.69a7.96 7.96 0 0 0 7.96 7.96h71.641z" style="fill:#7cb342"/><path d="M1165.32 1374.11c29.198-14.512 53.873-36.752 71.34-64.042 17.827-27.854 28.163-60.939 28.163-96.412a7.961 7.961 0 0 0-7.96-7.96h-171.145V1392.76h71.641a7.96 7.96 0 0 0 7.961-7.96v-10.69z" style="fill:#8bc34a"/><path d="M1085.71 1392.76v-18.642h-79.602v10.681a7.96 7.96 0 0 0 7.961 7.961h71.641z" style="fill:#6ea53b"/><path d="M1085.71 1374.12v18.642h71.642a7.96 7.96 0 0 0 7.96-7.96v-10.682h-79.602z" style="fill:#7ab242"/><path d="M1152.67 1058.8c-6.215-2.386-20.381 30.488-19.928 40.388.504 11 4.848 20.453 13.327 33.145 3.4 5.09 6.066 11.09 6.766 17.803 1.313 12.56-5 36.172-2.484 37.957 3.67 2.174 18.71-28.261 17.452-40.283-1.11-10.637-5.066-19.742-10.079-27.245-20.82-31.164 1.437-57.163-5.054-61.765z" style="fill:#fff;fill-rule:nonzero"/><path class="fil12" d="M1199.68 1070.91c-4.85-1.596-24.841 26.963-24.184 41.306.394 8.623 3.699 15.884 10.14 25.528 2.247 3.361 4.005 7.288 4.457 11.623.957 9.162-3.475 29.873-1.798 30.867 2.295 1.626 27.883-25.994 8.997-54.259-17.313-25.915 8.13-50.994 2.388-55.065zM1113.23 1177.01c6.72 3.485 20.121-20.13 17.99-34.876-.905-6.268-3.585-11.037-8.47-17.02-1.155-1.417-2.109-3.069-2.477-4.888-1.037-5.12.37-22.616-3.035-24.491-3.114-.584-13.313 20.595-11.581 29.142 1.182 5.835 3.74 10.523 6.745 14.205 2.463 3.016 3.742 4.924 3.95 6.363.268 1.861-6.383 30.955-3.122 31.565z"/></g></svg>
